<svg width="482" height="155" viewBox="0 0 482 155" fill="none" xmlns="http://www.w3.org/2000/svg">
<path d="M23.8577 80.8696V121.304H0.632019V6.31793H39.8156C51.1915 6.31793 60.25 9.84546 66.9913 16.9005C73.7851 23.9555 77.182 33.1165 77.182 44.3836C77.182 55.6504 73.8377 64.5481 67.1494 71.0769C60.4607 77.6051 51.1915 80.8696 39.3417 80.8696H23.8577ZM23.8577 61.5208H39.8156C44.2395 61.5208 47.6628 60.0729 50.0856 57.1775C52.508 54.2817 53.7194 50.0697 53.7194 44.5416C53.7194 38.8026 52.4817 34.2486 50.0064 30.8789C47.5313 27.4567 44.2132 25.7192 40.0525 25.6666H23.8577V61.5208ZM125.056 122.884C113.574 122.884 104.621 119.462 98.1959 112.617C91.7708 105.773 88.5579 95.98 88.5579 83.2387V76.447C88.5579 62.9687 91.5072 52.5706 97.4058 45.2522C103.304 37.9339 111.757 34.2749 122.765 34.2749C133.509 34.2749 141.593 37.7233 147.017 44.6205C152.442 51.4647 155.207 61.6263 155.312 75.1046V86.0819H110.836C111.152 92.3999 112.547 97.033 115.023 99.9814C117.498 102.877 121.316 104.325 126.478 104.325C133.956 104.325 140.197 101.771 145.2 96.6644L153.969 110.169C151.231 113.96 147.254 117.04 142.04 119.409C136.827 121.726 131.165 122.884 125.056 122.884ZM110.994 70.4448H133.351V68.3917C133.245 63.2845 132.402 59.4149 130.823 56.7826C129.243 54.1499 126.504 52.8338 122.607 52.8338C118.71 52.8338 115.865 54.2291 114.075 57.0194C112.337 59.8098 111.31 64.2849 110.994 70.4448ZM165.266 75.9732C165.266 61.9683 167.794 51.5176 172.85 44.6205C177.906 37.7233 184.99 34.2749 194.101 34.2749C201.843 34.2749 207.82 37.3284 212.034 43.4357L212.903 35.8542H233.047V121.304C233.047 132.203 229.993 140.521 223.884 146.26C217.774 152.052 209.005 154.947 197.577 154.947C192.89 154.947 187.965 154 182.804 152.104C177.643 150.262 173.798 147.892 171.27 144.996L178.775 129.518C180.882 131.729 183.62 133.519 186.991 134.888C190.362 136.309 193.548 137.02 196.55 137.02C201.553 137.02 205.135 135.809 207.294 133.387C209.506 131.018 210.638 127.175 210.691 121.857V114.513C206.425 120.093 200.869 122.884 194.022 122.884C184.911 122.884 177.853 119.356 172.85 112.301C167.9 105.194 165.372 95.1902 165.266 82.2912V75.9732ZM187.623 81.5802C187.623 89.4778 188.65 95.2428 190.704 98.8758C192.758 102.456 196.023 104.246 200.5 104.246C205.082 104.246 208.479 102.587 210.691 99.2704V58.4411C208.373 54.808 205.029 52.9918 200.658 52.9918C196.234 52.9918 192.942 54.808 190.783 58.4411C188.676 62.0738 187.623 67.9176 187.623 75.9732V81.5802Z" fill="white"/>
<path d="M297.563 113.486C292.929 119.751 286.714 122.884 278.92 122.884C271.072 122.884 265.121 120.199 261.066 114.828C257.011 109.406 254.983 101.534 254.983 91.2151V35.8542H277.339V91.7681C277.445 100.087 280.21 104.246 285.635 104.246C290.743 104.246 294.43 102.034 296.694 97.6123V35.8542H319.209V121.304H298.196L297.563 113.486ZM369.691 122.884C358.207 122.884 349.255 119.462 342.83 112.617C336.405 105.773 333.192 95.9801 333.192 83.2387V76.447C333.192 62.9688 336.141 52.5706 342.041 45.2523C347.94 37.9339 356.39 34.2749 367.399 34.2749C378.144 34.2749 386.227 37.7233 391.65 44.6205C397.077 51.4647 399.841 61.6263 399.945 75.1046V86.082H355.47C355.787 92.3999 357.182 97.033 359.656 99.9814C362.134 102.877 365.949 104.325 371.113 104.325C378.589 104.325 384.832 101.771 389.834 96.6644L398.604 110.169C395.864 113.96 391.89 117.04 386.675 119.409C381.461 121.726 375.798 122.884 369.691 122.884ZM355.628 70.4448H377.986V68.3917C377.878 63.2845 377.035 59.4149 375.458 56.7826C373.877 54.1499 371.137 52.8338 367.24 52.8338C363.344 52.8338 360.499 54.2291 358.709 57.0195C356.97 59.8098 355.945 64.2849 355.628 70.4448ZM436.048 121.304H413.613V35.8542H436.048V121.304ZM412.585 13.7415C412.585 10.2667 413.691 7.42356 415.905 5.21232C418.116 3.00102 421.066 1.89539 424.753 1.89539C428.437 1.89539 431.387 3.00102 433.601 5.21232C435.812 7.42356 436.918 10.2667 436.918 13.7415C436.918 17.1637 435.812 20.0068 433.601 22.2707C431.441 24.5347 428.491 25.6666 424.753 25.6666C421.012 25.6666 418.036 24.5347 415.824 22.2707C413.667 20.0068 412.585 17.1637 412.585 13.7415ZM476.179 85.9239H457.617L455.008 6.31794H478.788L476.179 85.9239ZM454.614 110.485C454.614 106.905 455.746 103.983 458.011 101.719C460.276 99.4022 463.226 98.2437 466.859 98.2437C470.439 98.2437 473.364 99.4022 475.626 101.719C477.891 103.983 479.024 106.905 479.024 110.485C479.024 114.012 477.891 116.908 475.626 119.172C473.415 121.436 470.493 122.568 466.859 122.568C463.172 122.568 460.195 121.436 457.93 119.172C455.719 116.908 454.614 114.012 454.614 110.485Z" fill="#FF8C42"/>
</svg>
